<?xml version="1.0" encoding="UTF-8" standalone="no"?>
<!DOCTYPE svg PUBLIC "-//W3C//DTD SVG 20010904//EN" "http://www.w3.org/TR/2001/REC-SVG-20010904/DTD/svg10.dtd">
<svg version="1.0" xmlns="http://www.w3.org/2000/svg" width="475.000000pt" height="194.000000pt" viewBox="0 0 475.000000 194.000000" preserveAspectRatio="xMidYMid meet">

<g transform="translate(0.000000,194.000000) scale(0.100000,-0.100000)" fill="#000000" stroke="none">
<path d="M507 1422 l-507 -507 0 -203 0 -202 505 0 505 0 0 -255 0 -255 260 0 260 0 0 460 0 460 -507 0 -508 0 505 505 505 505 -255 0 -255 0 -508 -508z"/>
<path d="M1740 1678 l0 -253 250 250 250 250 0 -250 0 -250 -250 -250 -250 -250 0 -257 0 -258 510 0 510 0 0 257 0 258 -255 -255 -255 -255 0 250 0 250 255 255 255 256 0 252 0 252 -510 0 -510 0 0 -252z"/>
<path d="M3240 664 l0 -255 23 3 22 3 3 253 2 252 -25 0 -25 0 0 -256z"/>
<path d="M3804 806 c-96 -42 -110 -192 -22 -246 44 -26 122 -27 165 0 89 54 87 208 -2 246 -43 17 -100 17 -141 0z m123 -72 c50 -50 10 -134 -63 -134 -45 0 -74 29 -74 75 0 76 84 112 137 59z"/>
<path d="M4545 806 c-93 -42 -118 -160 -48 -230 32 -32 59 -40 124 -34 56 6 93 33 115 85 53 123 -66 234 -191 179z m115 -66 c26 -26 26 -80 -1 -114 -28 -35 -80 -36 -114 -1 -33 33 -32 70 4 106 35 35 81 39 111 9z"/>
<path d="M3501 713 c-7 -54 -15 -115 -18 -136 l-6 -38 34 3 c28 2 35 8 37 28 7 66 10 70 52 70 57 0 95 35 95 88 0 65 -23 82 -110 82 l-73 0 -11 -97z m118 33 c18 -22 -3 -56 -35 -56 -20 0 -25 4 -20 16 3 9 6 24 6 35 0 23 32 26 49 5z"/>
<path d="M4057 683 c-8 -71 -12 -132 -7 -136 4 -5 18 -7 31 -5 19 2 25 11 30 41 3 20 8 40 11 43 3 2 18 -16 32 -41 24 -40 31 -45 61 -45 19 0 35 3 35 8 0 4 -13 27 -29 52 l-28 45 29 26 c35 33 39 88 8 119 -16 16 -33 20 -88 20 l-69 0 -16 -127z m120 61 c8 -20 -8 -48 -31 -52 -12 -3 -16 4 -16 32 0 30 4 36 20 36 11 0 23 -7 27 -16z"/>
<path d="M4276 794 c-11 -28 -7 -34 24 -34 17 0 30 -3 30 -7 -1 -5 -7 -52 -14 -106 -7 -53 -10 -99 -8 -102 9 -9 51 -5 57 5 4 6 11 55 17 110 l11 99 31 3 c23 2 32 9 34 26 3 21 1 22 -86 22 -73 0 -91 -3 -96 -16z"/>
</g>
</svg>